<?xml version="1.0" encoding="UTF-8" standalone="no"?>
<!DOCTYPE svg PUBLIC "-//W3C//DTD SVG 1.1//EN"
 "http://www.w3.org/Graphics/SVG/1.1/DTD/svg11.dtd">
<!-- Generated by graphviz version 9.0.0 (20230911.1827)
 -->
<!-- Pages: 1 -->
<svg width="2213pt" height="764pt"
 viewBox="0.00 0.00 2213.48 764.00" xmlns="http://www.w3.org/2000/svg" xmlns:xlink="http://www.w3.org/1999/xlink">
<g id="graph0" class="graph" transform="scale(1 1) rotate(0) translate(4 760)">
<polygon fill="white" stroke="none" points="-4,4 -4,-760 2209.48,-760 2209.48,4 -4,4"/>
<!-- [root] module.alb.aws_lb.web (expand) -->
<g id="node1" class="node">
<title>[root] module.alb.aws_lb.web (expand)</title>
<polygon fill="none" stroke="black" points="1027.36,-540 881.61,-540 881.61,-504 1027.36,-504 1027.36,-540"/>
<text text-anchor="middle" x="954.48" y="-516.95" font-family="Times,serif" font-size="14.00">module.alb.aws_lb.web</text>
</g>
<!-- [root] module.alb.aws_security_group.alb_sg (expand) -->
<g id="node6" class="node">
<title>[root] module.alb.aws_security_group.alb_sg (expand)</title>
<polygon fill="none" stroke="black" points="933.98,-468 704.98,-468 704.98,-432 933.98,-432 933.98,-468"/>
<text text-anchor="middle" x="819.48" y="-444.95" font-family="Times,serif" font-size="14.00">module.alb.aws_security_group.alb_sg</text>
</g>
<!-- [root] module.alb.aws_lb.web (expand)&#45;&gt;[root] module.alb.aws_security_group.alb_sg (expand) -->
<g id="edge4" class="edge">
<title>[root] module.alb.aws_lb.web (expand)&#45;&gt;[root] module.alb.aws_security_group.alb_sg (expand)</title>
<path fill="none" stroke="black" d="M920.77,-503.52C903.24,-494.43 881.62,-483.22 862.86,-473.49"/>
<polygon fill="black" stroke="black" points="864.61,-470.45 854.12,-468.96 861.38,-476.67 864.61,-470.45"/>
</g>
<!-- [root] module.alb.var.subnets (expand) -->
<g id="node19" class="node">
<title>[root] module.alb.var.subnets (expand)</title>
<ellipse fill="none" stroke="black" cx="977.48" cy="-378" rx="155.76" ry="18"/>
<text text-anchor="middle" x="977.48" y="-372.95" font-family="Times,serif" font-size="14.00">[root] module.alb.var.subnets (expand)</text>
</g>
<!-- [root] module.alb.aws_lb.web (expand)&#45;&gt;[root] module.alb.var.subnets (expand) -->
<g id="edge5" class="edge">
<title>[root] module.alb.aws_lb.web (expand)&#45;&gt;[root] module.alb.var.subnets (expand)</title>
<path fill="none" stroke="black" d="M957.3,-503.59C961.19,-479.61 968.23,-436.14 972.88,-407.42"/>
<polygon fill="black" stroke="black" points="976.33,-408.04 974.47,-397.6 969.42,-406.92 976.33,-408.04"/>
</g>
<!-- [root] module.alb.aws_lb_listener.http (expand) -->
<g id="node2" class="node">
<title>[root] module.alb.aws_lb_listener.http (expand)</title>
<polygon fill="none" stroke="black" points="1246.48,-612 1056.48,-612 1056.48,-576 1246.48,-576 1246.48,-612"/>
<text text-anchor="middle" x="1151.48" y="-588.95" font-family="Times,serif" font-size="14.00">module.alb.aws_lb_listener.http</text>
</g>
<!-- [root] module.alb.aws_lb_listener.http (expand)&#45;&gt;[root] module.alb.aws_lb.web (expand) -->
<g id="edge6" class="edge">
<title>[root] module.alb.aws_lb_listener.http (expand)&#45;&gt;[root] module.alb.aws_lb.web (expand)</title>
<path fill="none" stroke="black" d="M1102.28,-575.52C1075.5,-566 1042.17,-554.16 1013.95,-544.13"/>
<polygon fill="black" stroke="black" points="1015.42,-540.94 1004.83,-540.89 1013.08,-547.53 1015.42,-540.94"/>
</g>
<!-- [root] module.alb.aws_lb_listener.https (expand) -->
<g id="node3" class="node">
<title>[root] module.alb.aws_lb_listener.https (expand)</title>
<polygon fill="none" stroke="black" points="1038.11,-612 842.86,-612 842.86,-576 1038.11,-576 1038.11,-612"/>
<text text-anchor="middle" x="940.48" y="-588.95" font-family="Times,serif" font-size="14.00">module.alb.aws_lb_listener.https</text>
</g>
<!-- [root] module.alb.aws_lb_listener.https (expand)&#45;&gt;[root] module.alb.aws_lb.web (expand) -->
<g id="edge7" class="edge">
<title>[root] module.alb.aws_lb_listener.https (expand)&#45;&gt;[root] module.alb.aws_lb.web (expand)</title>
<path fill="none" stroke="black" d="M943.95,-575.7C945.42,-568.32 947.18,-559.52 948.83,-551.25"/>
<polygon fill="black" stroke="black" points="952.24,-552.08 950.77,-541.59 945.37,-550.71 952.24,-552.08"/>
</g>
<!-- [root] module.alb.aws_lb_target_group.web (expand) -->
<g id="node4" class="node">
<title>[root] module.alb.aws_lb_target_group.web (expand)</title>
<polygon fill="none" stroke="black" points="850.23,-540 628.73,-540 628.73,-504 850.23,-504 850.23,-540"/>
<text text-anchor="middle" x="739.48" y="-516.95" font-family="Times,serif" font-size="14.00">module.alb.aws_lb_target_group.web</text>
</g>
<!-- [root] module.alb.aws_lb_listener.https (expand)&#45;&gt;[root] module.alb.aws_lb_target_group.web (expand) -->
<g id="edge8" class="edge">
<title>[root] module.alb.aws_lb_listener.https (expand)&#45;&gt;[root] module.alb.aws_lb_target_group.web (expand)</title>
<path fill="none" stroke="black" d="M890.28,-575.52C862.96,-566 828.95,-554.16 800.15,-544.13"/>
<polygon fill="black" stroke="black" points="801.42,-540.86 790.82,-540.88 799.12,-547.47 801.42,-540.86"/>
</g>
<!-- [root] module.alb.var.vpc_id (expand) -->
<g id="node20" class="node">
<title>[root] module.alb.var.vpc_id (expand)</title>
<ellipse fill="none" stroke="black" cx="650.48" cy="-378" rx="153.2" ry="18"/>
<text text-anchor="middle" x="650.48" y="-372.95" font-family="Times,serif" font-size="14.00">[root] module.alb.var.vpc_id (expand)</text>
</g>
<!-- [root] module.alb.aws_lb_target_group.web (expand)&#45;&gt;[root] module.alb.var.vpc_id (expand) -->
<g id="edge9" class="edge">
<title>[root] module.alb.aws_lb_target_group.web (expand)&#45;&gt;[root] module.alb.var.vpc_id (expand)</title>
<path fill="none" stroke="black" d="M723.8,-503.54C715.2,-493.53 704.66,-480.49 696.48,-468 683.63,-448.35 671.54,-424.68 662.99,-406.69"/>
<polygon fill="black" stroke="black" points="666.18,-405.26 658.78,-397.68 659.84,-408.22 666.18,-405.26"/>
</g>
<!-- [root] module.alb.aws_lb_target_group_attachment.web (expand) -->
<g id="node5" class="node">
<title>[root] module.alb.aws_lb_target_group_attachment.web (expand)</title>
<polygon fill="none" stroke="black" points="824.61,-612 536.36,-612 536.36,-576 824.61,-576 824.61,-612"/>
<text text-anchor="middle" x="680.48" y="-588.95" font-family="Times,serif" font-size="14.00">module.alb.aws_lb_target_group_attachment.web</text>
</g>
<!-- [root] module.alb.aws_lb_target_group_attachment.web (expand)&#45;&gt;[root] module.alb.aws_lb_target_group.web (expand) -->
<g id="edge10" class="edge">
<title>[root] module.alb.aws_lb_target_group_attachment.web (expand)&#45;&gt;[root] module.alb.aws_lb_target_group.web (expand)</title>
<path fill="none" stroke="black" d="M695.07,-575.7C701.93,-567.56 710.25,-557.69 717.82,-548.7"/>
<polygon fill="black" stroke="black" points="720.32,-551.16 724.09,-541.26 714.97,-546.65 720.32,-551.16"/>
</g>
<!-- [root] module.alb.var.target_id (expand) -->
<g id="node21" class="node">
<title>[root] module.alb.var.target_id (expand)</title>
<ellipse fill="none" stroke="black" cx="449.48" cy="-522" rx="160.88" ry="18"/>
<text text-anchor="middle" x="449.48" y="-516.95" font-family="Times,serif" font-size="14.00">[root] module.alb.var.target_id (expand)</text>
</g>
<!-- [root] module.alb.aws_lb_target_group_attachment.web (expand)&#45;&gt;[root] module.alb.var.target_id (expand) -->
<g id="edge11" class="edge">
<title>[root] module.alb.aws_lb_target_group_attachment.web (expand)&#45;&gt;[root] module.alb.var.target_id (expand)</title>
<path fill="none" stroke="black" d="M622.79,-575.52C589.87,-565.54 548.51,-553.01 514.45,-542.69"/>
<polygon fill="black" stroke="black" points="515.7,-539.41 505.12,-539.86 513.67,-546.11 515.7,-539.41"/>
</g>
<!-- [root] module.alb.aws_security_group.alb_sg (expand)&#45;&gt;[root] module.alb.var.vpc_id (expand) -->
<g id="edge12" class="edge">
<title>[root] module.alb.aws_security_group.alb_sg (expand)&#45;&gt;[root] module.alb.var.vpc_id (expand)</title>
<path fill="none" stroke="black" d="M777.27,-431.52C754.28,-421.99 725.66,-410.14 701.43,-400.1"/>
<polygon fill="black" stroke="black" points="702.97,-396.95 692.39,-396.36 700.29,-403.42 702.97,-396.95"/>
</g>
<!-- [root] module.ec2.aws_instance.web (expand) -->
<g id="node7" class="node">
<title>[root] module.ec2.aws_instance.web (expand)</title>
<polygon fill="none" stroke="black" points="298.36,-396 116.61,-396 116.61,-360 298.36,-360 298.36,-396"/>
<text text-anchor="middle" x="207.48" y="-372.95" font-family="Times,serif" font-size="14.00">module.ec2.aws_instance.web</text>
</g>
<!-- [root] module.ec2.var.subnet_id (expand) -->
<g id="node27" class="node">
<title>[root] module.ec2.var.subnet_id (expand)</title>
<ellipse fill="none" stroke="black" cx="165.48" cy="-306" rx="165.48" ry="18"/>
<text text-anchor="middle" x="165.48" y="-300.95" font-family="Times,serif" font-size="14.00">[root] module.ec2.var.subnet_id (expand)</text>
</g>
<!-- [root] module.ec2.aws_instance.web (expand)&#45;&gt;[root] module.ec2.var.subnet_id (expand) -->
<g id="edge20" class="edge">
<title>[root] module.ec2.aws_instance.web (expand)&#45;&gt;[root] module.ec2.var.subnet_id (expand)</title>
<path fill="none" stroke="black" d="M197.1,-359.7C192.42,-351.9 186.79,-342.51 181.58,-333.83"/>
<polygon fill="black" stroke="black" points="184.67,-332.18 176.53,-325.4 178.67,-335.78 184.67,-332.18"/>
</g>
<!-- [root] module.network.aws_internet_gateway.igw (expand) -->
<g id="node8" class="node">
<title>[root] module.network.aws_internet_gateway.igw (expand)</title>
<polygon fill="none" stroke="black" points="1627.98,-180 1374.98,-180 1374.98,-144 1627.98,-144 1627.98,-180"/>
<text text-anchor="middle" x="1501.48" y="-156.95" font-family="Times,serif" font-size="14.00">module.network.aws_internet_gateway.igw</text>
</g>
<!-- [root] module.network.aws_vpc.main (expand) -->
<g id="node16" class="node">
<title>[root] module.network.aws_vpc.main (expand)</title>
<polygon fill="none" stroke="black" points="1468.36,-108 1280.61,-108 1280.61,-72 1468.36,-72 1468.36,-108"/>
<text text-anchor="middle" x="1374.48" y="-84.95" font-family="Times,serif" font-size="14.00">module.network.aws_vpc.main</text>
</g>
<!-- [root] module.network.aws_internet_gateway.igw (expand)&#45;&gt;[root] module.network.aws_vpc.main (expand) -->
<g id="edge29" class="edge">
<title>[root] module.network.aws_internet_gateway.igw (expand)&#45;&gt;[root] module.network.aws_vpc.main (expand)</title>
<path fill="none" stroke="black" d="M1469.76,-143.52C1453.43,-134.51 1433.31,-123.42 1415.78,-113.76"/>
<polygon fill="black" stroke="black" points="1417.57,-110.75 1407.13,-108.99 1414.19,-116.88 1417.57,-110.75"/>
</g>
<!-- [root] module.network.aws_route_table.public (expand) -->
<g id="node9" class="node">
<title>[root] module.network.aws_route_table.public (expand)</title>
<polygon fill="none" stroke="black" points="1509.98,-252 1274.98,-252 1274.98,-216 1509.98,-216 1509.98,-252"/>
<text text-anchor="middle" x="1392.48" y="-228.95" font-family="Times,serif" font-size="14.00">module.network.aws_route_table.public</text>
</g>
<!-- [root] module.network.aws_route_table.public (expand)&#45;&gt;[root] module.network.aws_internet_gateway.igw (expand) -->
<g id="edge30" class="edge">
<title>[root] module.network.aws_route_table.public (expand)&#45;&gt;[root] module.network.aws_internet_gateway.igw (expand)</title>
<path fill="none" stroke="black" d="M1419.71,-215.52C1433.47,-206.68 1450.35,-195.84 1465.2,-186.3"/>
<polygon fill="black" stroke="black" points="1466.81,-189.43 1473.33,-181.08 1463.03,-183.54 1466.81,-189.43"/>
</g>
<!-- [root] module.network.aws_route_table_association.public1 (expand) -->
<g id="node10" class="node">
<title>[root] module.network.aws_route_table_association.public1 (expand)</title>
<polygon fill="none" stroke="black" points="1360.73,-324 1052.23,-324 1052.23,-288 1360.73,-288 1360.73,-324"/>
<text text-anchor="middle" x="1206.48" y="-300.95" font-family="Times,serif" font-size="14.00">module.network.aws_route_table_association.public1</text>
</g>
<!-- [root] module.network.aws_route_table_association.public1 (expand)&#45;&gt;[root] module.network.aws_route_table.public (expand) -->
<g id="edge31" class="edge">
<title>[root] module.network.aws_route_table_association.public1 (expand)&#45;&gt;[root] module.network.aws_route_table.public (expand)</title>
<path fill="none" stroke="black" d="M1252.94,-287.52C1278,-278.08 1309.14,-266.37 1335.64,-256.39"/>
<polygon fill="black" stroke="black" points="1336.76,-259.71 1344.88,-252.91 1334.29,-253.16 1336.76,-259.71"/>
</g>
<!-- [root] module.network.aws_subnet.public1 (expand) -->
<g id="node14" class="node">
<title>[root] module.network.aws_subnet.public1 (expand)</title>
<polygon fill="none" stroke="black" points="1122.61,-180 906.36,-180 906.36,-144 1122.61,-144 1122.61,-180"/>
<text text-anchor="middle" x="1014.48" y="-156.95" font-family="Times,serif" font-size="14.00">module.network.aws_subnet.public1</text>
</g>
<!-- [root] module.network.aws_route_table_association.public1 (expand)&#45;&gt;[root] module.network.aws_subnet.public1 (expand) -->
<g id="edge32" class="edge">
<title>[root] module.network.aws_route_table_association.public1 (expand)&#45;&gt;[root] module.network.aws_subnet.public1 (expand)</title>
<path fill="none" stroke="black" d="M1218.25,-287.78C1229.9,-268.4 1243.81,-236.89 1227.48,-216 1220.09,-206.54 1168.37,-193.55 1117.76,-182.8"/>
<polygon fill="black" stroke="black" points="1118.64,-179.41 1108.13,-180.79 1117.2,-186.26 1118.64,-179.41"/>
</g>
<!-- [root] module.network.aws_route_table_association.public2 (expand) -->
<g id="node11" class="node">
<title>[root] module.network.aws_route_table_association.public2 (expand)</title>
<polygon fill="none" stroke="black" points="1687.73,-324 1379.23,-324 1379.23,-288 1687.73,-288 1687.73,-324"/>
<text text-anchor="middle" x="1533.48" y="-300.95" font-family="Times,serif" font-size="14.00">module.network.aws_route_table_association.public2</text>
</g>
<!-- [root] module.network.aws_route_table_association.public2 (expand)&#45;&gt;[root] module.network.aws_route_table.public (expand) -->
<g id="edge33" class="edge">
<title>[root] module.network.aws_route_table_association.public2 (expand)&#45;&gt;[root] module.network.aws_route_table.public (expand)</title>
<path fill="none" stroke="black" d="M1498.27,-287.52C1479.88,-278.39 1457.17,-267.11 1437.51,-257.35"/>
<polygon fill="black" stroke="black" points="1439.12,-254.25 1428.61,-252.93 1436.01,-260.52 1439.12,-254.25"/>
</g>
<!-- [root] module.network.aws_subnet.public2 (expand) -->
<g id="node15" class="node">
<title>[root] module.network.aws_subnet.public2 (expand)</title>
<polygon fill="none" stroke="black" points="1356.61,-180 1140.36,-180 1140.36,-144 1356.61,-144 1356.61,-180"/>
<text text-anchor="middle" x="1248.48" y="-156.95" font-family="Times,serif" font-size="14.00">module.network.aws_subnet.public2</text>
</g>
<!-- [root] module.network.aws_route_table_association.public2 (expand)&#45;&gt;[root] module.network.aws_subnet.public2 (expand) -->
<g id="edge34" class="edge">
<title>[root] module.network.aws_route_table_association.public2 (expand)&#45;&gt;[root] module.network.aws_subnet.public2 (expand)</title>
<path fill="none" stroke="black" d="M1536.09,-287.74C1538.05,-267.72 1537.83,-235.04 1519.48,-216 1513.71,-210.01 1434.45,-194.92 1363.14,-182.37"/>
<polygon fill="black" stroke="black" points="1364.17,-179 1353.72,-180.72 1362.97,-185.89 1364.17,-179"/>
</g>
<!-- [root] module.network.aws_subnet.private1 (expand) -->
<g id="node12" class="node">
<title>[root] module.network.aws_subnet.private1 (expand)</title>
<polygon fill="none" stroke="black" points="1913.48,-252 1693.48,-252 1693.48,-216 1913.48,-216 1913.48,-252"/>
<text text-anchor="middle" x="1803.48" y="-228.95" font-family="Times,serif" font-size="14.00">module.network.aws_subnet.private1</text>
</g>
<!-- [root] module.network.aws_subnet.private1 (expand)&#45;&gt;[root] module.network.aws_vpc.main (expand) -->
<g id="edge35" class="edge">
<title>[root] module.network.aws_subnet.private1 (expand)&#45;&gt;[root] module.network.aws_vpc.main (expand)</title>
<path fill="none" stroke="black" d="M1777.02,-215.63C1745.17,-195.51 1689.48,-162.72 1637.48,-144 1587.07,-125.85 1528.85,-113.31 1480.03,-105.01"/>
<polygon fill="black" stroke="black" points="1480.73,-101.57 1470.3,-103.39 1479.59,-108.48 1480.73,-101.57"/>
</g>
<!-- [root] module.network.aws_subnet.private2 (expand) -->
<g id="node13" class="node">
<title>[root] module.network.aws_subnet.private2 (expand)</title>
<polygon fill="none" stroke="black" points="2151.48,-252 1931.48,-252 1931.48,-216 2151.48,-216 2151.48,-252"/>
<text text-anchor="middle" x="2041.48" y="-228.95" font-family="Times,serif" font-size="14.00">module.network.aws_subnet.private2</text>
</g>
<!-- [root] module.network.aws_subnet.private2 (expand)&#45;&gt;[root] module.network.aws_vpc.main (expand) -->
<g id="edge36" class="edge">
<title>[root] module.network.aws_subnet.private2 (expand)&#45;&gt;[root] module.network.aws_vpc.main (expand)</title>
<path fill="none" stroke="black" d="M1978.71,-215.56C1908.39,-196.4 1790.85,-165.51 1688.48,-144 1619.34,-129.47 1540.98,-116.24 1479.84,-106.63"/>
<polygon fill="black" stroke="black" points="1480.54,-103.2 1470.12,-105.12 1479.46,-110.12 1480.54,-103.2"/>
</g>
<!-- [root] module.network.aws_subnet.public1 (expand)&#45;&gt;[root] module.network.aws_vpc.main (expand) -->
<g id="edge37" class="edge">
<title>[root] module.network.aws_subnet.public1 (expand)&#45;&gt;[root] module.network.aws_vpc.main (expand)</title>
<path fill="none" stroke="black" d="M1104.4,-143.52C1155.83,-133.52 1220.47,-120.95 1273.62,-110.61"/>
<polygon fill="black" stroke="black" points="1274.15,-114.08 1283.3,-108.73 1272.81,-107.2 1274.15,-114.08"/>
</g>
<!-- [root] module.network.aws_subnet.public2 (expand)&#45;&gt;[root] module.network.aws_vpc.main (expand) -->
<g id="edge38" class="edge">
<title>[root] module.network.aws_subnet.public2 (expand)&#45;&gt;[root] module.network.aws_vpc.main (expand)</title>
<path fill="none" stroke="black" d="M1279.95,-143.52C1296.16,-134.51 1316.12,-123.42 1333.52,-113.76"/>
<polygon fill="black" stroke="black" points="1335.05,-116.91 1342.09,-109 1331.65,-110.79 1335.05,-116.91"/>
</g>
<!-- [root] provider[&quot;registry.terraform.io/hashicorp/aws&quot;] -->
<g id="node17" class="node">
<title>[root] provider[&quot;registry.terraform.io/hashicorp/aws&quot;]</title>
<polygon fill="none" stroke="black" points="1168.48,-36 904.05,-18 1168.48,0 1432.92,-18 1168.48,-36"/>
<text text-anchor="middle" x="1168.48" y="-12.95" font-family="Times,serif" font-size="14.00">provider[&quot;registry.terraform.io/hashicorp/aws&quot;]</text>
</g>
<!-- [root] module.network.aws_vpc.main (expand)&#45;&gt;[root] provider[&quot;registry.terraform.io/hashicorp/aws&quot;] -->
<g id="edge40" class="edge">
<title>[root] module.network.aws_vpc.main (expand)&#45;&gt;[root] provider[&quot;registry.terraform.io/hashicorp/aws&quot;]</title>
<path fill="none" stroke="black" d="M1323.03,-71.52C1292.23,-61.05 1253.13,-47.76 1221.96,-37.17"/>
<polygon fill="black" stroke="black" points="1223.33,-33.94 1212.73,-34.04 1221.08,-40.57 1223.33,-33.94"/>
</g>
<!-- [root] module.network (expand) -->
<g id="node31" class="node">
<title>[root] module.network (expand)</title>
<ellipse fill="none" stroke="black" cx="1581.48" cy="-18" rx="130.68" ry="18"/>
<text text-anchor="middle" x="1581.48" y="-12.95" font-family="Times,serif" font-size="14.00">[root] module.network (expand)</text>
</g>
<!-- [root] module.network.aws_vpc.main (expand)&#45;&gt;[root] module.network (expand) -->
<g id="edge39" class="edge">
<title>[root] module.network.aws_vpc.main (expand)&#45;&gt;[root] module.network (expand)</title>
<path fill="none" stroke="black" d="M1426.19,-71.52C1455.51,-61.6 1492.32,-49.15 1522.74,-38.87"/>
<polygon fill="black" stroke="black" points="1523.85,-42.19 1532.2,-35.67 1521.6,-35.55 1523.85,-42.19"/>
</g>
<!-- [root] module.alb (close) -->
<g id="node18" class="node">
<title>[root] module.alb (close)</title>
<ellipse fill="none" stroke="black" cx="1023.48" cy="-666" rx="104.07" ry="18"/>
<text text-anchor="middle" x="1023.48" y="-660.95" font-family="Times,serif" font-size="14.00">[root] module.alb (close)</text>
</g>
<!-- [root] module.alb (close)&#45;&gt;[root] module.alb.aws_lb_listener.http (expand) -->
<g id="edge1" class="edge">
<title>[root] module.alb (close)&#45;&gt;[root] module.alb.aws_lb_listener.http (expand)</title>
<path fill="none" stroke="black" d="M1053.82,-648.41C1070.46,-639.31 1091.34,-627.89 1109.52,-617.95"/>
<polygon fill="black" stroke="black" points="1111.16,-621.04 1118.25,-613.17 1107.8,-614.9 1111.16,-621.04"/>
</g>
<!-- [root] module.alb (close)&#45;&gt;[root] module.alb.aws_lb_listener.https (expand) -->
<g id="edge2" class="edge">
<title>[root] module.alb (close)&#45;&gt;[root] module.alb.aws_lb_listener.https (expand)</title>
<path fill="none" stroke="black" d="M1003.39,-648.05C993.25,-639.5 980.75,-628.96 969.58,-619.54"/>
<polygon fill="black" stroke="black" points="972.03,-617.02 962.13,-613.25 967.51,-622.37 972.03,-617.02"/>
</g>
<!-- [root] module.alb (close)&#45;&gt;[root] module.alb.aws_lb_target_group_attachment.web (expand) -->
<g id="edge3" class="edge">
<title>[root] module.alb (close)&#45;&gt;[root] module.alb.aws_lb_target_group_attachment.web (expand)</title>
<path fill="none" stroke="black" d="M958.16,-651.67C906.94,-641.22 834.89,-626.51 777.02,-614.7"/>
<polygon fill="black" stroke="black" points="778,-611.33 767.5,-612.76 776.6,-618.19 778,-611.33"/>
</g>
<!-- [root] module.alb (expand) -->
<g id="node22" class="node">
<title>[root] module.alb (expand)</title>
<ellipse fill="none" stroke="black" cx="460.48" cy="-306" rx="111.74" ry="18"/>
<text text-anchor="middle" x="460.48" y="-300.95" font-family="Times,serif" font-size="14.00">[root] module.alb (expand)</text>
</g>
<!-- [root] module.alb.var.subnets (expand)&#45;&gt;[root] module.alb (expand) -->
<g id="edge13" class="edge">
<title>[root] module.alb.var.subnets (expand)&#45;&gt;[root] module.alb (expand)</title>
<path fill="none" stroke="black" d="M877.78,-363.84C797.69,-353.22 682.33,-337.83 581.48,-324 572.52,-322.77 563.18,-321.48 553.85,-320.18"/>
<polygon fill="black" stroke="black" points="554.37,-316.72 543.98,-318.8 553.4,-323.65 554.37,-316.72"/>
</g>
<!-- [root] module.network.output.public_subnets (expand) -->
<g id="node23" class="node">
<title>[root] module.network.output.public_subnets (expand)</title>
<ellipse fill="none" stroke="black" cx="1003.48" cy="-234" rx="214.62" ry="18"/>
<text text-anchor="middle" x="1003.48" y="-228.95" font-family="Times,serif" font-size="14.00">[root] module.network.output.public_subnets (expand)</text>
</g>
<!-- [root] module.alb.var.subnets (expand)&#45;&gt;[root] module.network.output.public_subnets (expand) -->
<g id="edge14" class="edge">
<title>[root] module.alb.var.subnets (expand)&#45;&gt;[root] module.network.output.public_subnets (expand)</title>
<path fill="none" stroke="black" d="M980.67,-359.59C985.06,-335.61 993.02,-292.14 998.28,-263.42"/>
<polygon fill="black" stroke="black" points="1001.72,-264.07 1000.08,-253.6 994.84,-262.81 1001.72,-264.07"/>
</g>
<!-- [root] module.alb.var.vpc_id (expand)&#45;&gt;[root] module.alb (expand) -->
<g id="edge17" class="edge">
<title>[root] module.alb.var.vpc_id (expand)&#45;&gt;[root] module.alb (expand)</title>
<path fill="none" stroke="black" d="M605.46,-360.41C578.21,-350.37 543.3,-337.51 514.56,-326.92"/>
<polygon fill="black" stroke="black" points="515.89,-323.68 505.3,-323.51 513.47,-330.25 515.89,-323.68"/>
</g>
<!-- [root] module.network.output.vpc_id (expand) -->
<g id="node25" class="node">
<title>[root] module.network.output.vpc_id (expand)</title>
<ellipse fill="none" stroke="black" cx="774.48" cy="-306" rx="184.42" ry="18"/>
<text text-anchor="middle" x="774.48" y="-300.95" font-family="Times,serif" font-size="14.00">[root] module.network.output.vpc_id (expand)</text>
</g>
<!-- [root] module.alb.var.vpc_id (expand)&#45;&gt;[root] module.network.output.vpc_id (expand) -->
<g id="edge18" class="edge">
<title>[root] module.alb.var.vpc_id (expand)&#45;&gt;[root] module.network.output.vpc_id (expand)</title>
<path fill="none" stroke="black" d="M680.82,-359.88C696.88,-350.81 716.82,-339.55 734.17,-329.76"/>
<polygon fill="black" stroke="black" points="735.73,-332.9 742.72,-324.93 732.29,-326.8 735.73,-332.9"/>
</g>
<!-- [root] module.alb.var.target_id (expand)&#45;&gt;[root] module.alb (expand) -->
<g id="edge15" class="edge">
<title>[root] module.alb.var.target_id (expand)&#45;&gt;[root] module.alb (expand)</title>
<path fill="none" stroke="black" d="M450.37,-503.85C452.25,-467.14 456.7,-380.66 459.02,-335.53"/>
<polygon fill="black" stroke="black" points="462.5,-335.91 459.52,-325.74 455.51,-335.55 462.5,-335.91"/>
</g>
<!-- [root] module.ec2.output.instance_id (expand) -->
<g id="node24" class="node">
<title>[root] module.ec2.output.instance_id (expand)</title>
<ellipse fill="none" stroke="black" cx="248.48" cy="-450" rx="183.91" ry="18"/>
<text text-anchor="middle" x="248.48" y="-444.95" font-family="Times,serif" font-size="14.00">[root] module.ec2.output.instance_id (expand)</text>
</g>
<!-- [root] module.alb.var.target_id (expand)&#45;&gt;[root] module.ec2.output.instance_id (expand) -->
<g id="edge16" class="edge">
<title>[root] module.alb.var.target_id (expand)&#45;&gt;[root] module.ec2.output.instance_id (expand)</title>
<path fill="none" stroke="black" d="M401.85,-504.41C373.62,-494.58 337.62,-482.04 307.59,-471.58"/>
<polygon fill="black" stroke="black" points="308.85,-468.32 298.25,-468.33 306.54,-474.93 308.85,-468.32"/>
</g>
<!-- [root] module.network.output.public_subnets (expand)&#45;&gt;[root] module.network.aws_subnet.public1 (expand) -->
<g id="edge43" class="edge">
<title>[root] module.network.output.public_subnets (expand)&#45;&gt;[root] module.network.aws_subnet.public1 (expand)</title>
<path fill="none" stroke="black" d="M1006.2,-215.7C1007.36,-208.32 1008.75,-199.52 1010.05,-191.25"/>
<polygon fill="black" stroke="black" points="1013.47,-192.02 1011.56,-181.6 1006.55,-190.93 1013.47,-192.02"/>
</g>
<!-- [root] module.network.output.public_subnets (expand)&#45;&gt;[root] module.network.aws_subnet.public2 (expand) -->
<g id="edge44" class="edge">
<title>[root] module.network.output.public_subnets (expand)&#45;&gt;[root] module.network.aws_subnet.public2 (expand)</title>
<path fill="none" stroke="black" d="M1062.17,-216.23C1096.42,-206.45 1139.91,-194.02 1176.26,-183.64"/>
<polygon fill="black" stroke="black" points="1177.18,-187.01 1185.84,-180.9 1175.26,-180.28 1177.18,-187.01"/>
</g>
<!-- [root] module.ec2.output.instance_id (expand)&#45;&gt;[root] module.ec2.aws_instance.web (expand) -->
<g id="edge21" class="edge">
<title>[root] module.ec2.output.instance_id (expand)&#45;&gt;[root] module.ec2.aws_instance.web (expand)</title>
<path fill="none" stroke="black" d="M238.35,-431.7C233.78,-423.9 228.28,-414.51 223.2,-405.83"/>
<polygon fill="black" stroke="black" points="226.34,-404.27 218.27,-397.41 220.3,-407.81 226.34,-404.27"/>
</g>
<!-- [root] module.network.output.vpc_id (expand)&#45;&gt;[root] module.network.aws_vpc.main (expand) -->
<g id="edge45" class="edge">
<title>[root] module.network.output.vpc_id (expand)&#45;&gt;[root] module.network.aws_vpc.main (expand)</title>
<path fill="none" stroke="black" d="M770.96,-287.56C768.08,-268.55 766.37,-237.91 779.48,-216 811.05,-163.29 839.35,-163.87 897.48,-144 963.94,-121.29 1149.68,-105.51 1268.82,-97.38"/>
<polygon fill="black" stroke="black" points="1268.88,-100.88 1278.62,-96.72 1268.41,-93.9 1268.88,-100.88"/>
</g>
<!-- [root] module.ec2 (close) -->
<g id="node26" class="node">
<title>[root] module.ec2 (close)</title>
<ellipse fill="none" stroke="black" cx="566.48" cy="-666" rx="105.6" ry="18"/>
<text text-anchor="middle" x="566.48" y="-660.95" font-family="Times,serif" font-size="14.00">[root] module.ec2 (close)</text>
</g>
<!-- [root] module.ec2 (close)&#45;&gt;[root] module.ec2.output.instance_id (expand) -->
<g id="edge19" class="edge">
<title>[root] module.ec2 (close)&#45;&gt;[root] module.ec2.output.instance_id (expand)</title>
<path fill="none" stroke="black" d="M498.48,-651.83C433.81,-635.93 337.96,-603.07 279.48,-540 264.01,-523.31 256.2,-498.47 252.29,-479.28"/>
<polygon fill="black" stroke="black" points="255.78,-478.9 250.59,-469.66 248.89,-480.12 255.78,-478.9"/>
</g>
<!-- [root] module.ec2.var.subnet_id (expand)&#45;&gt;[root] module.network.output.public_subnets (expand) -->
<g id="edge23" class="edge">
<title>[root] module.ec2.var.subnet_id (expand)&#45;&gt;[root] module.network.output.public_subnets (expand)</title>
<path fill="none" stroke="black" d="M284.33,-293.11C302.79,-291.34 321.65,-289.58 339.48,-288 508.39,-273.01 701.64,-257.8 835.94,-247.55"/>
<polygon fill="black" stroke="black" points="835.91,-251.06 845.61,-246.81 835.37,-244.08 835.91,-251.06"/>
</g>
<!-- [root] module.ec2 (expand) -->
<g id="node28" class="node">
<title>[root] module.ec2 (expand)</title>
<ellipse fill="none" stroke="black" cx="165.48" cy="-234" rx="113.28" ry="18"/>
<text text-anchor="middle" x="165.48" y="-228.95" font-family="Times,serif" font-size="14.00">[root] module.ec2 (expand)</text>
</g>
<!-- [root] module.ec2.var.subnet_id (expand)&#45;&gt;[root] module.ec2 (expand) -->
<g id="edge22" class="edge">
<title>[root] module.ec2.var.subnet_id (expand)&#45;&gt;[root] module.ec2 (expand)</title>
<path fill="none" stroke="black" d="M165.48,-287.7C165.48,-280.41 165.48,-271.73 165.48,-263.54"/>
<polygon fill="black" stroke="black" points="168.98,-263.62 165.48,-253.62 161.98,-263.62 168.98,-263.62"/>
</g>
<!-- [root] module.network (close) -->
<g id="node29" class="node">
<title>[root] module.network (close)</title>
<ellipse fill="none" stroke="black" cx="1274.48" cy="-378" rx="123" ry="18"/>
<text text-anchor="middle" x="1274.48" y="-372.95" font-family="Times,serif" font-size="14.00">[root] module.network (close)</text>
</g>
<!-- [root] module.network (close)&#45;&gt;[root] module.network.aws_route_table_association.public1 (expand) -->
<g id="edge24" class="edge">
<title>[root] module.network (close)&#45;&gt;[root] module.network.aws_route_table_association.public1 (expand)</title>
<path fill="none" stroke="black" d="M1257.68,-359.7C1249.61,-351.39 1239.78,-341.28 1230.91,-332.14"/>
<polygon fill="black" stroke="black" points="1233.63,-329.92 1224.15,-325.19 1228.61,-334.8 1233.63,-329.92"/>
</g>
<!-- [root] module.network (close)&#45;&gt;[root] module.network.aws_route_table_association.public2 (expand) -->
<g id="edge25" class="edge">
<title>[root] module.network (close)&#45;&gt;[root] module.network.aws_route_table_association.public2 (expand)</title>
<path fill="none" stroke="black" d="M1331.32,-361.64C1368.56,-351.57 1417.65,-338.31 1458.13,-327.37"/>
<polygon fill="black" stroke="black" points="1458.83,-330.8 1467.57,-324.81 1457,-324.04 1458.83,-330.8"/>
</g>
<!-- [root] module.network (close)&#45;&gt;[root] module.network.output.public_subnets (expand) -->
<g id="edge27" class="edge">
<title>[root] module.network (close)&#45;&gt;[root] module.network.output.public_subnets (expand)</title>
<path fill="none" stroke="black" d="M1186.48,-365.08C1130.85,-356 1065.44,-342.01 1043.48,-324 1024.87,-308.73 1014.6,-282.99 1009.14,-263.11"/>
<polygon fill="black" stroke="black" points="1012.61,-262.54 1006.82,-253.67 1005.81,-264.22 1012.61,-262.54"/>
</g>
<!-- [root] module.network (close)&#45;&gt;[root] module.network.output.vpc_id (expand) -->
<g id="edge28" class="edge">
<title>[root] module.network (close)&#45;&gt;[root] module.network.output.vpc_id (expand)</title>
<path fill="none" stroke="black" d="M1187.68,-364.85C1104.73,-353.23 979.2,-335.66 888.28,-322.93"/>
<polygon fill="black" stroke="black" points="888.98,-319.49 878.59,-321.57 888.01,-326.43 888.98,-319.49"/>
</g>
<!-- [root] module.network.output.private_subnets (expand) -->
<g id="node30" class="node">
<title>[root] module.network.output.private_subnets (expand)</title>
<ellipse fill="none" stroke="black" cx="1922.48" cy="-306" rx="217.18" ry="18"/>
<text text-anchor="middle" x="1922.48" y="-300.95" font-family="Times,serif" font-size="14.00">[root] module.network.output.private_subnets (expand)</text>
</g>
<!-- [root] module.network (close)&#45;&gt;[root] module.network.output.private_subnets (expand) -->
<g id="edge26" class="edge">
<title>[root] module.network (close)&#45;&gt;[root] module.network.output.private_subnets (expand)</title>
<path fill="none" stroke="black" d="M1371.15,-366.56C1480.23,-354.77 1658.61,-335.51 1782.82,-322.09"/>
<polygon fill="black" stroke="black" points="1782.84,-325.61 1792.41,-321.05 1782.09,-318.65 1782.84,-325.61"/>
</g>
<!-- [root] module.network.output.private_subnets (expand)&#45;&gt;[root] module.network.aws_subnet.private1 (expand) -->
<g id="edge41" class="edge">
<title>[root] module.network.output.private_subnets (expand)&#45;&gt;[root] module.network.aws_subnet.private1 (expand)</title>
<path fill="none" stroke="black" d="M1893.07,-287.7C1877.91,-278.78 1859.21,-267.78 1842.83,-258.14"/>
<polygon fill="black" stroke="black" points="1844.67,-255.17 1834.28,-253.11 1841.12,-261.2 1844.67,-255.17"/>
</g>
<!-- [root] module.network.output.private_subnets (expand)&#45;&gt;[root] module.network.aws_subnet.private2 (expand) -->
<g id="edge42" class="edge">
<title>[root] module.network.output.private_subnets (expand)&#45;&gt;[root] module.network.aws_subnet.private2 (expand)</title>
<path fill="none" stroke="black" d="M1951.9,-287.7C1967.06,-278.78 1985.76,-267.78 2002.14,-258.14"/>
<polygon fill="black" stroke="black" points="2003.85,-261.2 2010.69,-253.11 2000.3,-255.17 2003.85,-261.2"/>
</g>
<!-- [root] provider[&quot;registry.terraform.io/hashicorp/aws&quot;] (close) -->
<g id="node32" class="node">
<title>[root] provider[&quot;registry.terraform.io/hashicorp/aws&quot;] (close)</title>
<ellipse fill="none" stroke="black" cx="1540.48" cy="-666" rx="238.16" ry="18"/>
<text text-anchor="middle" x="1540.48" y="-660.95" font-family="Times,serif" font-size="14.00">[root] provider[&quot;registry.terraform.io/hashicorp/aws&quot;] (close)</text>
</g>
<!-- [root] provider[&quot;registry.terraform.io/hashicorp/aws&quot;] (close)&#45;&gt;[root] module.alb.aws_lb_listener.http (expand) -->
<g id="edge46" class="edge">
<title>[root] provider[&quot;registry.terraform.io/hashicorp/aws&quot;] (close)&#45;&gt;[root] module.alb.aws_lb_listener.http (expand)</title>
<path fill="none" stroke="black" d="M1451.24,-648.94C1393.7,-638.59 1318.57,-625.07 1257.92,-614.15"/>
<polygon fill="black" stroke="black" points="1258.72,-610.74 1248.26,-612.41 1257.48,-617.63 1258.72,-610.74"/>
</g>
<!-- [root] provider[&quot;registry.terraform.io/hashicorp/aws&quot;] (close)&#45;&gt;[root] module.alb.aws_lb_listener.https (expand) -->
<g id="edge47" class="edge">
<title>[root] provider[&quot;registry.terraform.io/hashicorp/aws&quot;] (close)&#45;&gt;[root] module.alb.aws_lb_listener.https (expand)</title>
<path fill="none" stroke="black" d="M1395.18,-651.32C1299.75,-641.88 1171.92,-628.35 1049.49,-612.23"/>
<polygon fill="black" stroke="black" points="1050.29,-608.81 1039.92,-610.96 1049.37,-615.74 1050.29,-608.81"/>
</g>
<!-- [root] provider[&quot;registry.terraform.io/hashicorp/aws&quot;] (close)&#45;&gt;[root] module.alb.aws_lb_target_group_attachment.web (expand) -->
<g id="edge48" class="edge">
<title>[root] provider[&quot;registry.terraform.io/hashicorp/aws&quot;] (close)&#45;&gt;[root] module.alb.aws_lb_target_group_attachment.web (expand)</title>
<path fill="none" stroke="black" d="M1364.19,-653.54C1223.94,-644.02 1022.37,-629.4 836.4,-612.25"/>
<polygon fill="black" stroke="black" points="836.81,-608.78 826.53,-611.34 836.17,-615.75 836.81,-608.78"/>
</g>
<!-- [root] provider[&quot;registry.terraform.io/hashicorp/aws&quot;] (close)&#45;&gt;[root] module.network.aws_route_table_association.public1 (expand) -->
<g id="edge49" class="edge">
<title>[root] provider[&quot;registry.terraform.io/hashicorp/aws&quot;] (close)&#45;&gt;[root] module.network.aws_route_table_association.public1 (expand)</title>
<path fill="none" stroke="black" d="M1528.4,-647.53C1511.66,-621.59 1483.48,-570.82 1483.48,-523 1483.48,-523 1483.48,-523 1483.48,-449 1483.48,-381.29 1417.13,-345.84 1349.37,-327.3"/>
<polygon fill="black" stroke="black" points="1350.52,-323.98 1339.96,-324.85 1348.75,-330.75 1350.52,-323.98"/>
</g>
<!-- [root] provider[&quot;registry.terraform.io/hashicorp/aws&quot;] (close)&#45;&gt;[root] module.network.aws_route_table_association.public2 (expand) -->
<g id="edge50" class="edge">
<title>[root] provider[&quot;registry.terraform.io/hashicorp/aws&quot;] (close)&#45;&gt;[root] module.network.aws_route_table_association.public2 (expand)</title>
<path fill="none" stroke="black" d="M1732.94,-655.07C1904.77,-640.77 2129.48,-606.16 2129.48,-523 2129.48,-523 2129.48,-523 2129.48,-449 2129.48,-402.14 1847.07,-352.51 1671.06,-326.12"/>
<polygon fill="black" stroke="black" points="1671.78,-322.69 1661.38,-324.68 1670.75,-329.62 1671.78,-322.69"/>
</g>
<!-- [root] provider[&quot;registry.terraform.io/hashicorp/aws&quot;] (close)&#45;&gt;[root] module.network.aws_subnet.private1 (expand) -->
<g id="edge51" class="edge">
<title>[root] provider[&quot;registry.terraform.io/hashicorp/aws&quot;] (close)&#45;&gt;[root] module.network.aws_subnet.private1 (expand)</title>
<path fill="none" stroke="black" d="M1616.64,-648.52C1752.18,-614.63 2031.97,-522.94 2148.48,-324 2156.57,-310.19 2158.9,-300.14 2148.48,-288 2146.6,-285.8 2023.57,-267.28 1924.98,-252.74"/>
<polygon fill="black" stroke="black" points="1925.6,-249.29 1915.2,-251.3 1924.58,-256.22 1925.6,-249.29"/>
</g>
<!-- [root] provider[&quot;registry.terraform.io/hashicorp/aws&quot;] (close)&#45;&gt;[root] module.network.aws_subnet.private2 (expand) -->
<g id="edge52" class="edge">
<title>[root] provider[&quot;registry.terraform.io/hashicorp/aws&quot;] (close)&#45;&gt;[root] module.network.aws_subnet.private2 (expand)</title>
<path fill="none" stroke="black" d="M1762.38,-659.27C1955.77,-648.03 2205.48,-615.6 2205.48,-523 2205.48,-523 2205.48,-523 2205.48,-377 2205.48,-333.63 2196.43,-318.38 2165.48,-288 2151.87,-274.63 2134.35,-264.4 2116.8,-256.67"/>
<polygon fill="black" stroke="black" points="2118.47,-253.57 2107.89,-252.98 2115.79,-260.04 2118.47,-253.57"/>
</g>
<!-- [root] root -->
<g id="node33" class="node">
<title>[root] root</title>
<ellipse fill="none" stroke="black" cx="1190.48" cy="-738" rx="49.3" ry="18"/>
<text text-anchor="middle" x="1190.48" y="-732.95" font-family="Times,serif" font-size="14.00">[root] root</text>
</g>
<!-- [root] root&#45;&gt;[root] module.alb (close) -->
<g id="edge53" class="edge">
<title>[root] root&#45;&gt;[root] module.alb (close)</title>
<path fill="none" stroke="black" d="M1159.07,-723.83C1134.69,-713.61 1100.45,-699.26 1072.47,-687.53"/>
<polygon fill="black" stroke="black" points="1074.07,-684.41 1063.49,-683.77 1071.36,-690.86 1074.07,-684.41"/>
</g>
<!-- [root] root&#45;&gt;[root] module.ec2 (close) -->
<g id="edge54" class="edge">
<title>[root] root&#45;&gt;[root] module.ec2 (close)</title>
<path fill="none" stroke="black" d="M1143.84,-731.77C1042.49,-720.4 800.39,-693.24 664.06,-677.95"/>
<polygon fill="black" stroke="black" points="664.65,-674.49 654.33,-676.85 663.87,-681.45 664.65,-674.49"/>
</g>
<!-- [root] root&#45;&gt;[root] module.network (close) -->
<g id="edge55" class="edge">
<title>[root] root&#45;&gt;[root] module.network (close)</title>
<path fill="none" stroke="black" d="M1207.89,-720.93C1232.49,-696.36 1274.48,-646.84 1274.48,-595 1274.48,-595 1274.48,-595 1274.48,-521 1274.48,-481.74 1274.48,-436.38 1274.48,-407.69"/>
<polygon fill="black" stroke="black" points="1277.98,-408 1274.48,-398 1270.98,-408 1277.98,-408"/>
</g>
<!-- [root] root&#45;&gt;[root] provider[&quot;registry.terraform.io/hashicorp/aws&quot;] (close) -->
<g id="edge56" class="edge">
<title>[root] root&#45;&gt;[root] provider[&quot;registry.terraform.io/hashicorp/aws&quot;] (close)</title>
<path fill="none" stroke="black" d="M1233.05,-728.49C1286.05,-717.89 1378.09,-699.48 1447.68,-685.56"/>
<polygon fill="black" stroke="black" points="1448.04,-689.06 1457.16,-683.66 1446.67,-682.19 1448.04,-689.06"/>
</g>
</g>
</svg>
